HIERARCHY
ROOT Hips
{
	OFFSET -3.958830 18.904000 13.208200
	CHANNELS 6 Xposition Yposition Zposition Zrotation Yrotation Xrotation 
	JOINT LHipJoint
	{
		OFFSET 0.000000 0.000000 0.000000
		CHANNELS 3 Zrotation Yrotation Xrotation
		JOINT LeftUpLeg
		{
			OFFSET 1.800000 -1.400000 0.085000
			CHANNELS 3 Zrotation Yrotation Xrotation
			JOINT LeftLeg
			{
				OFFSET 2.215000 -6.000000 0.000000
				CHANNELS 3 Zrotation Yrotation Xrotation
				JOINT LeftFoot
				{
					OFFSET 2.500000 -6.900000 0.000000
					CHANNELS 3 Zrotation Yrotation Xrotation
					JOINT LeftToeBase
					{
						OFFSET 0.200000 -0.500000 1.950000
						CHANNELS 3 Zrotation Yrotation Xrotation
						End Site
						{
							OFFSET 0.000000 0.000000 0.000000
						}
					}
				}
			}
		}
	}
	JOINT RHipJoint
	{
		OFFSET 0.000000 0.000000 0.000000
		CHANNELS 3 Zrotation Yrotation Xrotation
		JOINT RightUpLeg
		{
			OFFSET -1.800000 -1.400000 0.085000
			CHANNELS 3 Zrotation Yrotation Xrotation
			JOINT RightLeg
			{
				OFFSET -2.215000 -6.000000 0.000000
				CHANNELS 3 Zrotation Yrotation Xrotation
				JOINT RightFoot
				{
					OFFSET -2.500000 -6.900000 0.000000
					CHANNELS 3 Zrotation Yrotation Xrotation
					JOINT RightToeBase
					{
						OFFSET -0.200000 -0.500000 1.950000
						CHANNELS 3 Zrotation Yrotation Xrotation
						End Site
						{
							OFFSET 0.000000 0.000000 0.000000
						}
					}
				}
			}
		}
	}
	JOINT LowerBack
	{
		OFFSET 0.000000 0.000000 0.000000
		CHANNELS 3 Zrotation Yrotation Xrotation
		JOINT Spine
		{
			OFFSET -0.087000 1.940000 -0.288900
			CHANNELS 3 Zrotation Yrotation Xrotation
			JOINT Spine1
			{
				OFFSET 0.000000 1.950000 0.060000
				CHANNELS 3 Zrotation Yrotation Xrotation
				JOINT Neck
				{
					OFFSET 0.000000 0.000000 0.000000
					CHANNELS 3 Zrotation Yrotation Xrotation
					JOINT Neck1
					{
						OFFSET 0.000000 1.600000 0.340000
						CHANNELS 3 Zrotation Yrotation Xrotation
						JOINT Head
						{
							OFFSET 0.000000 1.667000 -0.240000
							CHANNELS 3 Zrotation Yrotation Xrotation
							End Site
							{
								OFFSET 0.000000 0.000000 0.000000
							}
						}
					}
				}
				JOINT LeftShoulder
				{
					OFFSET 0.000000 0.000000 0.000000
					CHANNELS 3 Zrotation Yrotation Xrotation
					JOINT LeftArm
					{
						OFFSET 2.700000 1.550000 -0.730000
						CHANNELS 3 Zrotation Yrotation Xrotation
						JOINT LeftForeArm
						{
							OFFSET 5.450000 0.000000 0.000000
							CHANNELS 3 Zrotation Yrotation Xrotation
							JOINT LeftHand
							{
								OFFSET 3.450000 0.000000 0.000000
								CHANNELS 3 Zrotation Yrotation Xrotation
								JOINT LeftHandIndex1
								{
									OFFSET 0.750000 0.000000 0.000000
									CHANNELS 3 Zrotation Yrotation Xrotation
									End Site
									{
										OFFSET 0.000000 0.000000 0.000000
									}
								}
							}
						}
					}
				}
				JOINT RightShoulder
				{
					OFFSET 0.000000 0.000000 0.000000
					CHANNELS 3 Zrotation Yrotation Xrotation
					JOINT RightArm
					{
						OFFSET -2.700000 1.550000 -0.730000
						CHANNELS 3 Zrotation Yrotation Xrotation
						JOINT RightForeArm
						{
							OFFSET -5.450000 0.000000 0.000000
							CHANNELS 3 Zrotation Yrotation Xrotation
							JOINT RightHand
							{
								OFFSET -3.450000 0.000000 0.000000
								CHANNELS 3 Zrotation Yrotation Xrotation
								JOINT RightHandIndex1
								{
									OFFSET -0.750000 0.000000 0.000000
									CHANNELS 3 Zrotation Yrotation Xrotation
									End Site
									{
										OFFSET 0.000000 0.000000 0.000000
									}
								}
							}
						}
					}
				}
			}
		}
	}
}
MOTION
Frames: 7
Frame Time: 0.016667
2.289510 16.973440 -7.246080 13.607412 18.157682 -2.840335 -15.052041 12.662238 2.962807 4.914091 -6.291314 -15.201851 -8.146557 10.235206 38.715373 0.251080 7.478610 1.854534 0.502750 0.474480 0.280200 18.574797 -10.174375 3.544022 9.789408 5.763390 -35.962372 -14.944055 -1.427428 54.564014 -1.056120 -7.358244 1.690015 0.389800 0.061460 0.100170 -4.438090 -1.909615 -8.088024 3.005363 -8.342070 31.293515 -14.660136 -4.849686 12.893057 -3.363010 -2.645937 -8.598481 -8.320442 -4.035440 29.584186 5.536100 -4.832420 -15.707930 -10.343531 -21.641095 -1.539973 7.789078 -43.304588 -6.862539 109.024492 -26.689306 -37.254985 -3.858321 2.747956 0.204330 0.004820 0.051130 0.139990 16.283037 16.170577 10.090759 44.942686 -3.050805 -11.078036 49.076171 32.140107 6.330435 2.219708 -1.767491 -0.041490 0.215100 -0.102110 -0.060640 
2.241470 17.081520 -7.240920 11.605223 16.258729 -2.910651 -15.047935 12.807545 2.780446 6.188277 -5.262062 -14.908827 -7.475132 9.764080 36.272376 0.167106 7.030849 2.008903 0.454760 0.401620 0.282960 18.561532 -10.083923 3.740199 10.797241 6.664770 -35.190220 -12.786978 -2.125995 52.955295 -0.969845 -7.002009 1.816013 0.336470 0.057930 0.109150 -4.386988 -2.016644 -8.064612 3.887534 -8.462988 30.033958 -14.720132 -5.042085 13.225180 -2.278930 -2.471194 -9.000602 -8.152324 -3.026023 30.929980 3.811210 -3.389170 -13.765710 -10.262500 -20.699299 -0.930169 5.381738 -38.830044 -5.916160 109.350263 -29.921677 -42.023241 -3.840454 2.734071 0.199630 0.022480 0.042360 0.120350 14.159971 15.879808 10.174406 43.029984 -1.670079 -9.928101 55.209114 38.463310 11.154493 2.226444 -1.851544 -0.046710 0.181640 -0.091900 -0.079100 
2.162420 17.260980 -7.257360 9.425684 14.918116 -2.671306 -15.025364 12.992791 2.570829 7.162546 -4.169176 -14.756211 -6.030537 8.661123 32.635922 0.019265 6.265812 2.282974 0.429100 0.377670 0.271510 18.556692 -10.087855 3.845455 10.700044 7.114153 -34.400846 -8.758837 -3.659150 49.682260 -0.813786 -6.396845 2.026020 0.318390 0.081720 0.111450 -4.399499 -2.079073 -7.957545 5.589059 -8.819133 28.732096 -14.638100 -5.439965 13.707677 -1.551358 -2.632111 -9.001958 -8.328427 -1.774164 31.468646 2.718950 -2.148730 -12.384940 -10.432885 -19.350543 -0.775894 4.123906 -36.163905 -5.632882 106.180175 -33.371317 -43.872139 -3.842826 2.694417 0.170720 0.051560 0.024540 0.121840 12.953402 15.034368 10.004476 39.496364 -0.513522 -8.225117 62.683936 45.202795 17.807369 2.236424 -1.940224 -0.047880 0.177730 -0.087750 -0.074140 
2.062810 17.447100 -7.248470 7.472628 13.651374 -1.819468 -15.033240 13.176205 2.367294 7.637539 -3.023954 -14.356547 -4.406379 7.437480 28.064579 -0.138040 5.387627 2.608617 0.398490 0.345810 0.256910 18.525498 -10.048354 3.994539 10.175639 7.761513 -34.500504 -4.709635 -4.962604 46.567074 -0.672186 -5.898921 2.204007 0.302580 0.104800 0.108760 -4.328139 -2.192910 -7.874649 6.866570 -8.420349 27.071263 -13.812118 -5.257460 13.780197 -0.771216 -2.240948 -8.891388 -7.392173 -1.214519 31.764012 1.662310 -1.269510 -10.975170 -10.431997 -17.032061 -0.885051 2.017513 -33.239217 -4.754955 101.587659 -38.745455 -46.087314 -3.817789 2.609448 0.141860 0.083640 -0.001430 0.119830 11.458553 13.199998 9.749726 36.731432 -0.509400 -6.606968 71.554434 51.899714 26.367980 2.264842 -2.011141 -0.057210 0.173050 -0.080040 -0.074950 
1.941530 17.659140 -7.251300 5.697049 12.676314 -0.727737 -15.069274 13.345007 2.274036 8.049237 -2.290004 -14.670300 -2.880057 6.280326 23.546914 -0.274072 4.594463 2.893913 0.389500 0.333000 0.257410 18.463034 -9.994282 4.062956 8.735940 8.068187 -34.713037 -0.127555 -6.377132 43.082902 -0.554030 -5.463816 2.346371 0.295840 0.109570 0.123380 -4.176670 -2.412985 -7.823344 7.343382 -7.983424 25.769683 -11.986667 -5.201869 13.583961 -0.224183 -1.969406 -8.665562 -6.676407 -0.826044 32.001082 0.594320 -0.665070 -10.265780 -10.381724 -14.502107 -0.882512 -0.114855 -29.798319 -3.951187 97.028752 -44.312213 -47.715647 -3.771109 2.501646 0.123630 0.104630 -0.011290 0.114170 10.445371 11.344233 9.144872 33.161601 0.110545 -4.747684 81.609812 56.564868 35.869548 2.341704 -2.020294 -0.052020 0.154690 -0.075210 -0.077490 
1.816160 17.898760 -7.264150 4.112765 10.949817 -0.725867 -15.057131 13.384314 2.233278 8.699890 -1.835713 -14.153282 -2.577244 5.795954 20.270547 -0.321661 4.193986 3.044035 0.399490 0.346120 0.265170 18.457129 -10.004563 4.084015 7.586857 8.269552 -34.258795 2.920182 -7.332256 41.565733 -0.539097 -5.385766 2.372928 0.300570 0.099340 0.119570 -4.157569 -2.387101 -7.821968 8.138062 -7.521762 26.024448 -10.623288 -4.970480 13.424536 -0.185971 -2.185656 -8.412302 -7.011297 -0.227640 32.631523 0.523850 -0.393660 -10.243950 -10.158266 -12.719899 -1.320886 -0.180478 -26.817026 -4.232543 88.277177 -51.025271 -45.579499 -3.642546 2.297626 0.123180 0.096140 -0.004160 0.117660 10.197592 10.253887 8.909973 29.663891 -0.128132 -3.887580 93.880933 61.729495 48.726895 2.518090 -1.836953 -0.046410 0.152880 -0.085330 -0.075910 
1.689840 18.125720 -7.299980 2.316996 9.663723 -0.892984 -15.060286 13.396892 2.182384 9.432532 -1.743691 -14.792657 -1.612772 5.499553 19.844128 -0.375449 4.059720 3.076588 0.419220 0.353680 0.318360 18.451385 -9.936691 4.188903 6.553630 8.856842 -34.774512 5.131254 -8.540137 42.830624 -0.640728 -5.769793 2.229788 0.308300 0.057740 0.115650 -4.121381 -2.416094 -7.882866 8.941234 -7.369501 27.256906 -9.133279 -4.948654 12.854453 0.132170 -2.054133 -8.022662 -6.643211 0.469831 33.311213 -0.514600 0.696770 -11.391690 -9.756101 -11.625100 -1.800774 0.405739 -23.104036 -5.246430 77.240609 -58.919550 -41.651941 -3.451334 2.053027 0.166660 0.072700 0.026840 0.102530 9.290010 9.514215 8.359105 25.977300 -0.206042 -4.268273 107.715944 64.781212 64.636265 2.634783 -1.441435 -0.059050 0.157380 -0.097030 -0.109010 
